<?xml version="1.0" standalone="no"?><!DOCTYPE svg PUBLIC "-//W3C//DTD SVG 1.1//EN" "http://www.w3.org/Graphics/SVG/1.1/DTD/svg11.dtd"><svg t="1576327873184" class="icon" viewBox="0 0 1024 1024" version="1.1" xmlns="http://www.w3.org/2000/svg" p-id="3583" xmlns:xlink="http://www.w3.org/1999/xlink" width="200" height="200"><defs><style type="text/css"></style></defs><path d="M804 543.8c1.5 154.6 142.2 206 143.8 206.7-1.3 3.5-22.5 73.3-74.2 145.4-44.7 62.3-90.9 124.2-163.9 125.5-71.8 1.3-94.8-40.6-176.9-40.6-82 0-107.7 39.3-175.6 41.9-70.4 2.6-124.1-67.2-169.1-129.3-92.2-126.9-162.5-358.6-68-515 46.9-77.7 130.7-126.8 221.7-128.2 69.2-1.2 134.6 44.5 176.8 44.5 42.4 0 121.7-54.9 205.2-46.9 34.9 1.4 133 13.4 196 101.2-5.1 3.2-117.2 65.3-115.8 194.8zM510.1 236.2C502 177.4 532.4 116.4 567 78 605.7 34.8 670.9 2.7 724.8 0.6c6.9 59.8-18.4 119.9-55.7 163.2-37.5 43.2-98.8 76.9-159 72.4z m0 0" p-id="3584"></path></svg>