<?xml version="1.0" standalone="no"?><!DOCTYPE svg PUBLIC "-//W3C//DTD SVG 1.1//EN" "http://www.w3.org/Graphics/SVG/1.1/DTD/svg11.dtd"><svg t="1576325890940" class="icon" viewBox="0 0 1024 1024" version="1.1" xmlns="http://www.w3.org/2000/svg" p-id="3472" xmlns:xlink="http://www.w3.org/1999/xlink" width="200" height="200"><defs><style type="text/css"></style></defs><path d="M240.203487 434.924292h689.037648c50.880627 0 92.564756 45.582644 92.564755 101.261444v386.552819c0 55.6788-41.684129 101.261445-92.564755 101.261445H240.203487c-50.880627 0-92.464794-45.582644-92.464794-101.261445V536.185736c0-55.778762 41.584167-101.261445 92.464794-101.261444zM205.116846 2.089095c-33.287326-6.497526-65.97488 2.499048-91.76506 22.291512-25.890142 19.59254-44.782949 50.080932-50.780665 86.567039L2.993805 478.007888c-5.797792 34.886717 1.399467 70.673091 20.292274 100.461749 10.695928 16.893568 25.090447 31.188125 42.083976 41.184319V536.185736c0-9.396422 0.599772-18.492959 1.799315-27.489533-0.599772-5.997716-0.399848-11.995433 0.49981-17.993149l59.677278-367.260165c2.698972-16.893568 11.595585-30.888239 23.591017-40.084738 11.995433-9.496384 27.489533-13.294938 42.483824-10.396041l612.86665 119.254593c15.394139 2.898896 28.289229 12.595204 36.686032 25.79018 8.396803 13.095014 12.195357 29.688696 9.496384 46.582264l-6.997336 42.983634-630.95976-122.853223-27.589496 169.335525c17.093492-5.997716 35.186603-9.096536 53.279714-9.196499h666.146364l10.995813-67.674232c5.697831-34.886717-1.499429-70.573129-20.292274-100.461749-18.093111-28.189267-45.88253-48.98135-79.169856-55.478877L205.116846 2.089095z m531.497632 506.20726c-49.681084 0-89.965745 44.083215-89.965746 98.46251s40.284662 98.562472 89.965746 98.562473c22.291512 0 42.78371-8.896613 58.477734-23.591018 15.793986 15.094253 36.686032 23.491056 58.477735 23.591018 49.681084 0 90.065707-44.183177 90.065707-98.562473 0-54.479257-40.284662-98.46251-90.065707-98.46251-22.291512 0-42.683748 8.796651-58.477735 23.591018-15.694024-14.994291-36.686032-23.491056-58.477734-23.591018z m66.074841 329.174666v66.9745H953.831772v-66.9745H802.689319z m-190.127608 0v66.9745h151.142452v-66.9745H612.561711z m-195.925401 0v66.9745h151.142452v-66.9745H416.63631z m-190.227571 0v66.9745h151.142453v-66.9745H226.408739z m0 0" fill="" p-id="3473"></path></svg>