<?xml version="1.0" standalone="no"?><!DOCTYPE svg PUBLIC "-//W3C//DTD SVG 1.1//EN" "http://www.w3.org/Graphics/SVG/1.1/DTD/svg11.dtd"><svg t="1576330790100" class="icon" viewBox="0 0 1024 1024" version="1.1" xmlns="http://www.w3.org/2000/svg" p-id="4257" xmlns:xlink="http://www.w3.org/1999/xlink" width="200" height="200"><defs><style type="text/css"></style></defs><path d="M888.832 565.248q0 40.96-18.944 65.536t-67.072 24.576l-585.728 0q-43.008 0-65.024-27.136t-22.016-75.264l0-390.144q0-47.104 19.456-74.24t70.656-27.136l577.536 0q52.224 0 71.68 23.04t19.456 70.144l0 410.624zM604.16 160.768q0-28.672-25.6-28.672l-339.968 0q-27.648 0-27.648 30.72l0 162.816q0 14.336 5.632 21.504t20.992 8.192l336.896 1.024q29.696 0 29.696-28.672l0-166.912zM812.032 465.92q0-13.312-14.336-13.312l-102.4 0q-14.336 0-14.336 13.312t14.336 13.312l102.4 0q14.336 0 14.336-13.312zM811.008 182.272q0-20.48-17.408-20.48l-83.968 0q-11.264 0-14.848 6.144t-3.584 17.408l0 109.568q0 11.264 3.584 18.944t14.848 7.68l84.992 0q12.288 0 14.336-7.168t2.048-18.432l0-113.664zM330.752 416.768q-6.144 0-10.24 1.536t-4.096 8.704l0 16.384q0 9.216 10.24 9.216l9.216 0 14.336 0 14.336 0 8.192 0q7.168 0 8.704-2.56t1.536-6.656l0-16.384q0-4.096-1.024-7.68t-7.168-2.56l-44.032 0zM440.32 416.768q-6.144 0-9.728 0.512t-4.608 7.68q0 6.144 0.512 11.264t-0.512 10.24q0 5.12 3.584 5.632t7.68 0.512l49.152 0q7.168 0 7.168-7.168l0-21.504q0-3.072-1.024-5.632t-7.168-1.536l-45.056 0zM222.208 416.768q-6.144 0-9.728 1.536t-3.584 8.704q-1.024 4.096-0.512 8.704t0.512 8.704q-1.024 5.12 2.56 7.168t6.656 2.048l46.08 0q9.216-1.024 9.216-10.24l0-15.36q0-4.096-1.024-7.68t-7.168-3.584q-5.12 1.024-17.92 0.512t-25.088-0.512zM551.936 416.768q-7.168 0-10.752 0.512t-3.584 7.68q-1.024 6.144-0.512 11.264t0.512 10.24q-1.024 5.12 2.56 5.632t7.68 0.512l51.2 0q8.192 0 8.192-7.168l0-21.504q0-3.072-1.024-5.632t-7.168-1.536l-47.104 0zM330.752 483.328q-6.144 0-10.24 0.512t-4.096 7.68l0 21.504q0 6.144 10.24 6.144l48.128 0q8.192 0 8.192-8.192l0-20.48q0-3.072-1.024-5.632t-7.168-1.536l-44.032 0zM440.32 483.328q-6.144 0-9.728 0.512t-4.608 7.68q0 6.144 0.512 11.264t-0.512 10.24q0 4.096 3.584 5.12t7.68 1.024l49.152 0q7.168 0 7.168-8.192l0-20.48q0-3.072-1.024-5.632t-7.168-1.536l-45.056 0zM222.208 483.328q-6.144 0-9.728 0.512t-3.584 7.68q-1.024 7.168-0.512 12.288t0.512 9.216q-1.024 5.12 2.56 6.144t6.656 1.024l48.128 0q8.192 0 8.192-8.192l0-20.48q0-3.072-1.024-5.632t-7.168-2.56q-5.12 1.024-18.432 0.512t-25.6-0.512zM551.936 483.328q-6.144 0-10.24 0.512t-4.096 7.68q-1.024 6.144-0.512 11.264t0.512 10.24q-1.024 4.096 2.56 5.12t7.68 1.024l51.2 0q8.192 0 8.192-8.192l0-20.48q0-3.072-1.024-5.632t-7.168-1.536l-47.104 0zM330.752 547.84q-6.144 0-10.24 0.512t-4.096 7.68l0 21.504q0 5.12 3.072 5.632t7.168 0.512l48.128 0q8.192 0 8.192-7.168l0-20.48q0-4.096-1.024-6.144t-7.168-2.048l-44.032 0zM440.32 547.84q-6.144 0-9.728 0.512t-4.608 7.68q0 7.168 0.512 11.776t-0.512 9.728q0 5.12 3.584 5.632t7.68 0.512l49.152 0q7.168 0 7.168-7.168l0-20.48q0-4.096-1.024-6.144t-7.168-2.048l-45.056 0zM222.208 548.864q-6.144 0-9.728 0.512t-3.584 6.656q-1.024 7.168-0.512 12.288t0.512 10.24q-1.024 4.096 2.56 5.12t6.656 1.024l48.128 0q7.168 0 7.168-8.192l0-20.48q0-3.072-1.024-5.632t-6.144-1.536l-44.032 0zM551.936 547.84q-6.144 0-10.24 0.512t-4.096 7.68q-1.024 7.168-0.512 11.776t0.512 9.728q-1.024 5.12 2.56 5.632t7.68 0.512l51.2 0q8.192 0 8.192-7.168l0-20.48q0-4.096-1.024-6.144t-7.168-2.048l-47.104 0zM888.832 905.216q0 38.912-16.384 57.344t-63.488 18.432l-589.824 0q-38.912 0-64-15.36t-25.088-62.464l0-118.784q0-44.032 16.896-62.464t65.024-18.432l588.8 0q40.96 0 64.512 15.872t23.552 60.928l0 124.928zM809.984 805.888q0-17.408-9.216-28.672t-28.672-13.312l-526.336 0q-20.48-1.024-30.208 11.776t-10.752 33.28l0 58.368q1.024 19.456 7.68 28.16t29.184 10.752l533.504 1.024q19.456 0 27.136-10.24t7.68-29.696l0-61.44z" p-id="4258"></path></svg>