<?xml version="1.0" standalone="no"?><!DOCTYPE svg PUBLIC "-//W3C//DTD SVG 1.1//EN" "http://www.w3.org/Graphics/SVG/1.1/DTD/svg11.dtd"><svg t="1576325852574" class="icon" viewBox="0 0 1024 1024" version="1.1" xmlns="http://www.w3.org/2000/svg" p-id="3360" xmlns:xlink="http://www.w3.org/1999/xlink" width="200" height="200"><defs><style type="text/css"></style></defs><path d="M896.471315 862.354199h-35.394227V375.227462c0-33.934672-27.60993-61.544601-61.544602-61.544602H627.426535V183.295878c0-33.934672-27.60993-61.544601-61.544601-61.544601h-350.293384c-33.934672 0-61.544601 27.60993-61.544602 61.544601V862.354199h-27.731559c-11.311557 0-20.55541 9.243853-20.555411 20.55541 0 11.433187 9.243853 20.67704 20.555411 20.67704H896.471315c11.433187 0 20.55541-9.243853 20.55541-20.67704S907.782872 862.354199 896.471315 862.354199z m-96.938829-507.438888c11.189928 0 20.312151 9.122224 20.312151 20.312151V862.354199H627.426535V354.915311h172.105951zM195.276399 183.295878c0-11.189928 9.122224-20.312151 20.312151-20.312151h350.293384c11.189928 0 20.312151 9.122224 20.312151 20.312151V862.354199H195.276399V183.295878z m0 0" p-id="3361"></path><path d="M346.948569 272.572039H270.56515c-11.311557 0-20.55541 9.243853-20.55541 20.555411 0 11.311557 9.243853 20.55541 20.55541 20.55541h76.261789c11.433187 0 20.67704-9.243853 20.67704-20.55541 0-11.311557-9.243853-20.55541-20.55541-20.555411z m165.41632 0h-76.261789c-11.311557 0-20.55541 9.243853-20.55541 20.555411 0 11.311557 9.243853 20.55541 20.55541 20.55541h76.261789c11.311557 0 20.67704-9.243853 20.67704-20.55541-0.12163-11.311557-9.365483-20.55541-20.67704-20.555411z m202.391733 277.923744c11.433187 0 20.55541-9.243853 20.55541-20.55541V453.678584c0-11.311557-9.243853-20.55541-20.55541-20.55541-11.311557 0-20.55541 9.243853-20.55541 20.55541v76.261789c0 11.433187 9.243853 20.55541 20.55541 20.55541z m0 206.648771c11.433187 0 20.55541-9.243853 20.55541-20.55541v-76.261789c0-11.311557-9.243853-20.55541-20.55541-20.555411-11.311557 0-20.55541 9.243853-20.55541 20.555411v76.261789c0 11.311557 9.243853 20.55541 20.55541 20.55541zM346.948569 456.111177H270.56515c-11.311557 0-20.55541 9.243853-20.55541 20.55541 0 11.311557 9.243853 20.55541 20.55541 20.555411h76.261789c11.433187 0 20.67704-9.243853 20.67704-20.555411 0-11.311557-9.243853-20.55541-20.55541-20.55541z m165.41632 0h-76.261789c-11.311557 0-20.55541 9.243853-20.55541 20.55541 0 11.311557 9.243853 20.55541 20.55541 20.555411h76.261789c11.311557 0 20.67704-9.243853 20.67704-20.555411-0.12163-11.311557-9.365483-20.55541-20.67704-20.55541z m-165.41632 183.539138H270.56515c-11.311557 0-20.55541 9.243853-20.55541 20.55541 0 11.433187 9.243853 20.55541 20.55541 20.555411h76.261789c11.433187 0 20.67704-9.243853 20.67704-20.555411 0-11.311557-9.243853-20.55541-20.55541-20.55541z m165.41632 0h-76.261789c-11.311557 0-20.55541 9.243853-20.55541 20.55541 0 11.433187 9.243853 20.55541 20.55541 20.555411h76.261789c11.311557 0 20.67704-9.243853 20.67704-20.555411-0.12163-11.311557-9.365483-20.55541-20.67704-20.55541z m0 0" p-id="3362"></path></svg>