<?xml version="1.0" standalone="no"?><!DOCTYPE svg PUBLIC "-//W3C//DTD SVG 1.1//EN" "http://www.w3.org/Graphics/SVG/1.1/DTD/svg11.dtd"><svg t="1573462057775" class="icon" viewBox="0 0 1024 1024" version="1.1" xmlns="http://www.w3.org/2000/svg" p-id="953" xmlns:xlink="http://www.w3.org/1999/xlink" width="200" height="200"><defs><style type="text/css"></style></defs><path d="M912.739705 511.967663a31.4368 31.4368 0 0 1 23.293306 52.547369l-403.434443 445.623242a31.4368 31.4368 0 0 1-46.58661 0L82.577516 564.515032a31.4368 31.4368 0 0 1 23.293305-52.547369H292.648421V34.438737A31.4368 31.4368 0 0 1 324.085221 2.996547h370.440084a31.4368 31.4368 0 0 1 31.4368 31.4368v477.534316h186.7776z m-246.660042-449.088674H352.525474v449.088674c0 33.0752-26.812632 59.887832-59.882442 59.887832H170.005558L509.305263 946.661053l339.299705-374.778611H725.962105c-33.069811 0-59.882442-26.812632-59.882442-59.882442V62.878989z"  p-id="954"></path></svg>
