<?xml version="1.0" standalone="no"?><!DOCTYPE svg PUBLIC "-//W3C//DTD SVG 1.1//EN" "http://www.w3.org/Graphics/SVG/1.1/DTD/svg11.dtd"><svg t="1576330919126" class="icon" viewBox="0 0 1025 1024" version="1.1" xmlns="http://www.w3.org/2000/svg" p-id="4368" xmlns:xlink="http://www.w3.org/1999/xlink" width="200.1953125" height="200"><defs><style type="text/css"></style></defs><path d="M957.62963 0h-891.25926C30.340741 0 0 30.340741 0 66.37037v246.518519C0 348.918519 30.340741 379.259259 66.37037 379.259259h81.540741v369.777778c0 56.888889 47.407407 104.296296 104.296296 104.296296h301.511112c3.792593 60.681481 28.444444 117.57037 70.162962 161.185186 5.688889 5.688889 13.274074 9.481481 20.85926 9.481481 7.585185 0 13.274074-1.896296 18.962963-7.585185 11.377778-11.377778 13.274074-28.444444 1.896296-39.822222-36.02963-39.822222-54.992593-89.125926-54.992593-144.118519V589.748148c0-11.377778 9.481481-20.859259 20.85926-20.859259 22.755556 0 39.822222 18.962963 39.822222 39.822222v216.177778c0 15.17037 13.274074 28.444444 28.444444 28.444444 56.888889 0 102.4-47.407407 102.4-104.296296V530.962963l96.711111 136.533333c36.02963 49.303704 39.822222 115.674074 11.377778 170.666667l-49.303703 94.814815c-7.585185 13.274074-9.481481 28.444444-9.481482 41.718518v18.962963c0 15.17037 13.274074 28.444444 28.444444 28.444445s28.444444-13.274074 28.444445-28.444445v-18.962963c0-5.688889 1.896296-11.377778 3.792593-15.17037l49.303703-94.814815c37.925926-73.955556 32.237037-161.185185-15.17037-229.451852l-144.118519-202.903703V379.259259h157.392593c36.02963 0 66.37037-30.340741 66.37037-66.37037v-246.518519C1024 30.340741 993.659259 0 957.62963 0zM745.244444 749.037037c0 15.17037-7.585185 28.444444-17.066666 37.925926v-176.355556c0-53.096296-43.614815-96.711111-96.711111-96.711111-41.718519 0-77.748148 34.133333-77.748148 77.748148V796.444444H252.207407c-26.548148 0-47.407407-20.859259-47.407407-47.407407v-568.888889h540.444444v568.888889z m221.866667-436.148148c0 5.688889-3.792593 9.481481-9.481481 9.481481h-157.392593V151.703704c0-15.17037-13.274074-28.444444-28.444444-28.444445H176.355556c-17.066667 0-28.444444 13.274074-28.444445 28.444445v170.666666H66.37037c-5.688889 0-9.481481-3.792593-9.481481-9.481481v-246.518519c0-5.688889 3.792593-9.481481 9.481481-9.481481h891.25926c5.688889 0 9.481481 3.792593 9.481481 9.481481v246.518519z" p-id="4369"></path><path d="M271.17037 405.807407c15.17037 0 28.444444-13.274074 28.444445-28.444444v-83.437037c0-15.17037-13.274074-28.444444-28.444445-28.444445s-28.444444 13.274074-28.444444 28.444445v83.437037c0 17.066667 11.377778 28.444444 28.444444 28.444444zM271.17037 557.511111c15.17037 0 28.444444-13.274074 28.444445-28.444444v-60.681482c0-15.17037-13.274074-28.444444-28.444445-28.444444s-28.444444 13.274074-28.444444 28.444444v60.681482c0 17.066667 11.377778 28.444444 28.444444 28.444444zM381.155556 201.007407c-15.17037 0-28.444444 13.274074-28.444445 28.444445V530.962963c0 15.17037 13.274074 28.444444 28.444445 28.444444s28.444444-13.274074 28.444444-28.444444V229.451852c0-15.17037-11.377778-28.444444-28.444444-28.444445zM381.155556 578.37037h-111.881482c-15.17037 0-28.444444 13.274074-28.444444 28.444445v111.881481c0 15.17037 13.274074 28.444444 28.444444 28.444445h111.881482c15.17037 0 28.444444-13.274074 28.444444-28.444445V606.814815c0-17.066667-11.377778-28.444444-28.444444-28.444445z m-28.444445 109.985186h-54.992592v-54.992593h54.992592v54.992593z" p-id="4370"></path></svg>