<?xml version="1.0" standalone="no"?><!DOCTYPE svg PUBLIC "-//W3C//DTD SVG 1.1//EN" "http://www.w3.org/Graphics/SVG/1.1/DTD/svg11.dtd"><svg t="1573462025680" class="icon" viewBox="0 0 1692 1024" version="1.1" xmlns="http://www.w3.org/2000/svg" p-id="731" xmlns:xlink="http://www.w3.org/1999/xlink" width="330.46875" height="200"><defs><style type="text/css"></style></defs><path d="M720.46864 0h224.103371a41.626016 41.626016 0 0 1 37.835274 24.270743l100.562905 219.230352c9.585084 20.89626 0.41626 45.605463-20.48 55.190547a41.626016 41.626016 0 0 1-17.355274 3.790743H619.905734c-22.991436 0-41.626016-18.637355-41.626016-41.626016a41.626016 41.626016 0 0 1 3.790743-17.355274l100.562905-219.230352A41.626016 41.626016 0 0 1 720.46864 0zM442.961864 360.758808h224.103372a41.626016 41.626016 0 0 1 37.835273 24.270742l100.562906 219.230352c9.585084 20.89626 0.41626 45.605463-20.48 55.190548a41.626016 41.626016 0 0 1-17.355274 3.790742H342.398959c-22.991436 0-41.626016-18.637355-41.626016-41.626016a41.626016 41.626016 0 0 1 3.790743-17.355274l100.562905-219.230352A41.626016 41.626016 0 0 1 442.961864 360.758808zM997.975415 360.758808h224.103371a41.626016 41.626016 0 0 1 37.835274 24.270742l100.562905 219.230352c9.585084 20.89626 0.41626 45.605463-20.48 55.190548a41.626016 41.626016 0 0 1-17.355274 3.790742H897.412509c-22.991436 0-41.626016-18.637355-41.626016-41.626016a41.626016 41.626016 0 0 1 3.790743-17.355274l100.562905-219.230352A41.626016 41.626016 0 0 1 997.975415 360.758808zM720.46864 721.517615h224.103371a41.626016 41.626016 0 0 1 37.835274 24.270743l100.562905 219.230352c9.585084 20.89626 0.41626 45.605463-20.48 55.190547a41.626016 41.626016 0 0 1-17.355274 3.790743H619.905734c-22.991436 0-41.626016-18.637355-41.626016-41.626016a41.626016 41.626016 0 0 1 3.790743-17.355274l100.562905-219.230352A41.626016 41.626016 0 0 1 720.46864 721.517615zM1281.870396 721.517615h239.077637a41.626016 41.626016 0 0 1 37.502265 23.560325l105.591328 219.230353c9.976369 20.715881 1.273756 45.594363-19.43935 55.567956a41.626016 41.626016 0 0 1-18.062916 4.123751H1176.279068c-22.988661 0-41.626016-18.637355-41.626017-41.626016a41.626016 41.626016 0 0 1 4.123751-18.065691l105.591328-219.230353a41.626016 41.626016 0 0 1 37.502266-23.560325zM165.455089 721.517615h224.103372a41.626016 41.626016 0 0 1 37.835273 24.270743l100.562906 219.230352c9.585084 20.89626 0.41626 45.605463-20.48 55.190547a41.626016 41.626016 0 0 1-17.355274 3.790743H64.892184c-22.991436 0-41.626016-18.637355-41.626016-41.626016a41.626016 41.626016 0 0 1 3.790743-17.355274l100.562905-219.230352A41.626016 41.626016 0 0 1 165.455089 721.517615z" p-id="732"></path></svg>