<?xml version="1.0" standalone="no"?><!DOCTYPE svg PUBLIC "-//W3C//DTD SVG 1.1//EN" "http://www.w3.org/Graphics/SVG/1.1/DTD/svg11.dtd"><svg t="1573628154581" class="icon" viewBox="0 0 1192 1024" version="1.1" xmlns="http://www.w3.org/2000/svg" p-id="774" xmlns:xlink="http://www.w3.org/1999/xlink" width="232.8125" height="200"><defs><style type="text/css"></style></defs><path d="M981.963636 472.744727c56.529455-39.470545 93.672727-104.890182 93.672728-178.926545 0-103.365818-73.419636-193.291636-174.603637-213.818182a36.381091 36.381091 0 0 0-14.429091 71.272727c67.397818 13.690182 116.305455 73.617455 116.305455 142.545455 0 80.197818-65.256727 145.454545-145.454546 145.454545-2.181818 0-4.305455 0.273455-6.4 0.651637-3.944727-0.139636-7.784727-0.651636-11.781818-0.651637a36.363636 36.363636 0 1 0 0 72.727273c158.021818 0 272.727273 137.634909 272.727273 327.272727a36.363636 36.363636 0 1 0 72.727273 0c0-168.401455-81.105455-305.943273-202.763637-366.528z m-805.730909 0C128.314182 433.28 96.832 367.854545 96.832 293.818182c0-103.365818 62.231273-193.291636 147.991273-213.818182 16.389818-3.223273 32 9.448727 35.298909 28.666182 3.298909 19.211636-6.900364 38.050909-23.057455 42.606545-57.134545 13.690182-98.589091 73.617455-98.589091 142.545455 0 80.197818 55.313455 145.454545 123.287273 145.454545 1.850182 0 3.653818 0.273455 5.428364 0.651637 3.345455-0.139636 6.597818-0.651636 9.984-0.651637 17.024 0 30.824727 16.279273 30.824727 36.363637S314.199273 512 297.175273 512c-133.934545 0-231.168 137.634909-231.168 327.272727 0 20.084364-13.800727 36.363636-30.818909 36.363637-17.024 0-30.824727-16.279273-30.824728-36.363637 0-168.401455 68.747636-305.943273 171.869091-366.528z m153.221818-233.472c0 130.542545 105.821091 236.363636 236.363637 236.363637s236.363636-105.821091 236.363636-236.363637S696.360727 2.909091 565.818182 2.909091 329.454545 108.730182 329.454545 239.272727z m329.530182 247.796364c-29.824-7.470545-74.984727 61.294545-93.166545 61.294545-18.181818 0-60.002909-69.166545-88.343273-62.452363-168.290909 39.872-293.474909 191.069091-293.474909 371.543272 0 127.272727 170.944 163.636364 381.818182 163.636364s381.818182-36.363636 381.818182-163.636364c0-178.728727-122.821818-328.785455-288.651637-370.385454zM565.818182 948.363636c-18.181818 0-90.909091-72.727273-90.909091-109.073454 0-36.381091 72.727273-254.562909 90.909091-254.562909s90.909091 218.24 90.909091 254.545454c0 36.421818-72.727273 109.090909-90.909091 109.090909z"  p-id="775"></path></svg>