<?xml version="1.0" standalone="no"?><!DOCTYPE svg PUBLIC "-//W3C//DTD SVG 1.1//EN" "http://www.w3.org/Graphics/SVG/1.1/DTD/svg11.dtd"><svg t="1576330965355" class="icon" viewBox="0 0 1024 1024" version="1.1" xmlns="http://www.w3.org/2000/svg" p-id="4480" xmlns:xlink="http://www.w3.org/1999/xlink" width="200" height="200"><defs><style type="text/css"></style></defs><path d="M892.373333 810.666667H810.666667a42.666667 42.666667 0 0 1 0-85.333334h81.706666a9.6 9.6 0 0 0 3.626667-8.32V349.653333a9.6 9.6 0 0 0-3.626667-8.32H131.626667a9.6 9.6 0 0 0-3.626667 8.32v367.36a9.6 9.6 0 0 0 3.626667 8.32H213.333333a42.666667 42.666667 0 0 1 0 85.333334H131.626667A91.52 91.52 0 0 1 42.666667 717.013333V349.653333A91.52 91.52 0 0 1 131.626667 256h760.746666A91.52 91.52 0 0 1 981.333333 349.653333v367.36A91.52 91.52 0 0 1 892.373333 810.666667z" fill="" p-id="4481"></path><path d="M853.333333 341.333333H170.666667V125.226667A82.773333 82.773333 0 0 1 253.226667 42.666667h517.546666A82.773333 82.773333 0 0 1 853.333333 125.226667z m-597.333333-85.333333h512V128H256zM768 981.333333H256a85.333333 85.333333 0 0 1-85.333333-85.333333v-192a85.333333 85.333333 0 0 1 85.333333-85.333333h512a85.333333 85.333333 0 0 1 85.333333 85.333333v192a85.333333 85.333333 0 0 1-85.333333 85.333333zM256 704v192h512v-192z" fill="" p-id="4482"></path><path d="M384 490.666667h-170.666667a42.666667 42.666667 0 0 1 0-85.333334h170.666667a42.666667 42.666667 0 0 1 0 85.333334z" fill="" p-id="4483"></path></svg>