<?xml version="1.0" standalone="no"?><!DOCTYPE svg PUBLIC "-//W3C//DTD SVG 1.1//EN" "http://www.w3.org/Graphics/SVG/1.1/DTD/svg11.dtd"><svg t="1576329584024" class="icon" viewBox="0 0 1095 1024" version="1.1" xmlns="http://www.w3.org/2000/svg" p-id="3805" xmlns:xlink="http://www.w3.org/1999/xlink" width="213.8671875" height="200"><defs><style type="text/css"></style></defs><path d="M1003.451505 332.200669v-239.732442H92.468227v239.732442h910.983278zM41.09699 660.976589c-6.849498-10.274247-6.849498-20.548495-10.274248-30.822743v-239.732441c0-10.274247 3.424749-20.548495 6.849499-30.822743-3.424749-6.849498-3.424749-17.123746-6.849499-27.397993v-239.732442c0-34.247492 27.397993-58.220736 58.220736-58.220735h910.983278c34.247492 0 58.220736 27.397993 58.220736 58.220735v239.732442c0 10.274247-3.424749 20.548495-6.849499 30.822742 6.849498 10.274247 6.849498 20.548495 6.849499 30.822743v239.732441c0 10.274247-3.424749 20.548495-6.849499 30.822743 6.849498 10.274247 6.849498 20.548495 6.849499 30.822742v239.732442c0 34.247492-27.397993 58.220736-58.220736 58.220736H92.468227c-34.247492 0-58.220736-27.397993-58.220735-58.220736v-239.732442c-3.424749-17.123746 0-23.973244 6.849498-34.247491z m962.354515 270.555184v-239.732442H92.468227v239.732442h910.983278z m0-301.377927v-239.732441H92.468227v239.732441h910.983278z" fill="" p-id="3806"></path><path d="M181.511706 212.334448c17.123746 0 30.822742-13.698997 30.822742-30.822742s-13.698997-30.822742-30.822742-30.822743-30.822742 13.698997-30.822743 30.822743 13.698997 30.822742 30.822743 30.822742z m119.86622 0c17.123746 0 30.822742-13.698997 30.822743-30.822742s-13.698997-30.822742-30.822743-30.822743-30.822742 13.698997-30.822742 30.822743 13.698997 30.822742 30.822742 30.822742z m284.254181-30.822742c0-17.123746 13.698997-30.822742 30.822742-30.822743h301.377927c17.123746 0 30.822742 13.698997 30.822742 30.822743s-13.698997 30.822742-30.822742 30.822742H616.454849c-20.548495 0-30.822742-13.698997-30.822742-30.822742zM181.511706 510.287625c17.123746 0 30.822742-13.698997 30.822742-30.822742s-13.698997-30.822742-30.822742-30.822743-30.822742 13.698997-30.822743 30.822743 13.698997 30.822742 30.822743 30.822742z m119.86622 0c17.123746 0 30.822742-13.698997 30.822743-30.822742s-13.698997-30.822742-30.822743-30.822743-30.822742 13.698997-30.822742 30.822743 13.698997 30.822742 30.822742 30.822742z m284.254181-27.397993c0-17.123746 13.698997-30.822742 30.822742-30.822742h301.377927c17.123746 0 30.822742 13.698997 30.822742 30.822742s-13.698997 30.822742-30.822742 30.822743H616.454849c-20.548495-3.424749-30.822742-17.123746-30.822742-30.822743zM181.511706 811.665552c17.123746 0 30.822742-13.698997 30.822742-30.822743s-13.698997-30.822742-30.822742-30.822742-30.822742 13.698997-30.822743 30.822742 13.698997 30.822742 30.822743 30.822743z m119.86622 0c17.123746 0 30.822742-13.698997 30.822743-30.822743s-13.698997-30.822742-30.822743-30.822742-30.822742 13.698997-30.822742 30.822742 13.698997 30.822742 30.822742 30.822743z m284.254181-30.822743c0-17.123746 13.698997-30.822742 30.822742-30.822742h301.377927c17.123746 0 30.822742 13.698997 30.822742 30.822742s-13.698997 30.822742-30.822742 30.822743H616.454849c-20.548495 0-30.822742-13.698997-30.822742-30.822743z" fill="" p-id="3807"></path></svg>