<?xml version="1.0" standalone="no"?><!DOCTYPE svg PUBLIC "-//W3C//DTD SVG 1.1//EN" "http://www.w3.org/Graphics/SVG/1.1/DTD/svg11.dtd"><svg t="1576331685387" class="icon" viewBox="0 0 1024 1024" version="1.1" xmlns="http://www.w3.org/2000/svg" p-id="5386" width="300" height="300" xmlns:xlink="http://www.w3.org/1999/xlink"><defs><style type="text/css"></style></defs><path d="M760.035556 704.284444c-2.275556-2.275556-5.688889-3.413333-9.102223-3.413333h-31.857777V444.871111h71.68c7.964444 0 13.653333-6.826667 13.653333-13.653333 0-4.551111-2.275556-7.964444-5.688889-11.377778l-278.755556-216.177778c-4.551111-3.413333-11.377778-3.413333-17.066666 0l-278.755556 216.177778c-5.688889 4.551111-7.964444 13.653333-3.413333 19.342222 2.275556 3.413333 6.826667 5.688889 11.377778 5.688889h71.68v254.862222h-31.857778c-3.413333 0-6.826667 1.137778-9.102222 3.413334L227.555556 740.693333c-4.551111 4.551111-4.551111 12.515556 0 17.066667 2.275556 2.275556 5.688889 3.413333 9.102222 3.413333h551.822222c6.826667 0 12.515556-5.688889 11.377778-12.515555 0-3.413333-1.137778-5.688889-3.413334-7.964445l-36.408888-36.408889z m-333.368889-4.551111H352.711111V444.871111h73.955556v254.862222z m121.742222 0h-73.955556V444.871111h73.955556v254.862222zM512 394.808889c-27.306667 0-48.924444-21.617778-48.924444-48.924445s21.617778-48.924444 48.924444-48.924444 48.924444 21.617778 48.924444 48.924444c0 26.168889-21.617778 48.924444-48.924444 48.924445z m159.288889 304.924444h-73.955556V444.871111H671.288889v254.862222z" p-id="5387"></path></svg>