<?xml version="1.0" standalone="no"?><!DOCTYPE svg PUBLIC "-//W3C//DTD SVG 1.1//EN" "http://www.w3.org/Graphics/SVG/1.1/DTD/svg11.dtd"><svg t="1576331342107" class="icon" viewBox="0 0 1024 1024" version="1.1" xmlns="http://www.w3.org/2000/svg" p-id="4928" xmlns:xlink="http://www.w3.org/1999/xlink" width="200" height="200"><defs><style type="text/css"></style></defs><path d="M959.2 492.8L555.9 89.5c-23.4-23.4-61.5-23.4-84.9 0L69.8 490.8c-11.7 11.7-11.7 30.7 0 42.4s30.7 11.7 42.4 0L513.4 132h0.1l403.3 403.3c5.9 5.9 13.5 8.8 21.2 8.8s15.4-2.9 21.2-8.8c11.7-11.8 11.7-30.8 0-42.5z" fill="" p-id="4929"></path><path d="M814.9 661.2c-16.6 0-30 13.4-30 30v146.7s-0.1 0.1 0 0.1H527V644h192.8c8.3 0 15-6.7 15-15s-6.7-15-15-15H527V491.7c0-8.3-6.7-15-15-15s-15 6.7-15 15V838H239.2s-0.1-0.1-0.1 0V605c0-16.6-13.4-30-30-30s-30 13.4-30 30v233c0 33.1 26.9 60 60 60h545.8c33.1 0 60-26.9 60-60V691.2c0-16.5-13.4-30-30-30z" fill="" p-id="4930"></path></svg>