<?xml version="1.0" standalone="no"?><!DOCTYPE svg PUBLIC "-//W3C//DTD SVG 1.1//EN" "http://www.w3.org/Graphics/SVG/1.1/DTD/svg11.dtd"><svg t="1576331377668" class="icon" viewBox="0 0 1024 1024" version="1.1" xmlns="http://www.w3.org/2000/svg" p-id="5040" xmlns:xlink="http://www.w3.org/1999/xlink" width="200" height="200"><defs><style type="text/css"></style></defs><path d="M921.6 614.4a34.133333 34.133333 0 0 0-34.133333 34.133333v243.712c0 34.133333-41.984 63.488-91.818667 63.488H228.352C178.517333 955.733333 136.533333 926.72 136.533333 892.245333V648.533333a34.133333 34.133333 0 0 0-68.266666 0v243.712C68.266667 964.949333 139.946667 1024 228.352 1024h567.296C884.053333 1024 955.733333 964.949333 955.733333 892.245333V648.533333a34.133333 34.133333 0 0 0-34.133333-34.133333zM1024 389.802667a68.266667 68.266667 0 0 0-2.048-15.018667l-58.709333-204.8C926.037333 23.552 878.250667 0 778.24 0H245.76C145.749333 0 97.962667 23.552 61.44 168.96L2.730667 375.466667a68.266667 68.266667 0 0 0-2.048 15.018666v2.730667A186.709333 186.709333 0 0 0 186.709333 580.266667a186.368 186.368 0 0 0 107.52-34.133334 189.44 189.44 0 0 0 37.205334-34.133333l7.168-9.557333 6.485333 9.557333a207.189333 207.189333 0 0 0 84.309333 68.266667A204.8 204.8 0 0 0 648.533333 546.133333a204.8 204.8 0 0 0 31.061334-34.133333l6.485333-9.557333 7.168 9.557333a189.44 189.44 0 0 0 37.205333 34.133333 186.368 186.368 0 0 0 107.52 34.133334A186.709333 186.709333 0 0 0 1024 393.557333v-3.754666zM836.266667 512a119.466667 119.466667 0 0 1-119.466667-119.466667 34.133333 34.133333 0 0 0-68.266667 0 136.533333 136.533333 0 0 1-273.066666 0 34.133333 34.133333 0 0 0-68.266667 0 119.466667 119.466667 0 0 1-238.933333 0l59.050666-205.824C157.013333 68.266667 180.565333 68.266667 245.76 68.266667h532.48c65.194667 0 88.746667 0 118.442667 118.442666L955.733333 393.216A119.466667 119.466667 0 0 1 836.266667 512z" fill="" p-id="5041"></path></svg>