<?xml version="1.0" standalone="no"?><!DOCTYPE svg PUBLIC "-//W3C//DTD SVG 1.1//EN" "http://www.w3.org/Graphics/SVG/1.1/DTD/svg11.dtd"><svg t="1576331012695" class="icon" viewBox="0 0 1024 1024" version="1.1" xmlns="http://www.w3.org/2000/svg" p-id="4593" xmlns:xlink="http://www.w3.org/1999/xlink" width="200" height="200"><defs><style type="text/css"></style></defs><path d="M859.7 563.5l-116-99.9c-14.6-12.6-36.7-11-49.3 3.6L469.2 727c-5.2 6-8.2 13.5-8.5 21.4l-5.2 123.3c-0.5 10.7 4 21 12.1 28 6.4 5.5 14.5 8.5 22.8 8.5 2.2 0 4.4-0.2 6.6-0.6l121.2-23.4c7.7-1.5 14.7-5.6 19.9-11.5L745 748.6c12.6-14.6 11-36.7-3.7-49.4s-36.7-11-49.4 3.7L593 817.8l-65.8 12.7 2.8-66.9 125.1-144.3 88.7 76.4c6.6 5.7 14.7 8.5 22.8 8.5 9.8 0 19.6-4.1 26.5-12.2 0.2-0.2 0.3-0.4 0.5-0.6 1.2-1 2.3-2.2 3.4-3.4l66-75c6.2-7 9.3-16.2 8.6-25.5-0.5-9.2-4.9-17.9-11.9-24z m-135.2-24.1l62.7 54-23.6 26.9-62.6-53.9 23.5-27z" p-id="4594"></path><path d="M777 114.5H247c-52.4 0-95 42.6-95 95v605c0 52.4 42.6 95 95 95h142.8c19.3 0 35-15.7 35-35s-15.7-35-35-35H247c-13.8 0-25-11.2-25-25v-605c0-13.8 11.2-25 25-25h530c13.8 0 25 11.2 25 25v225.3c0 19.3 15.7 35 35 35s35-15.7 35-35V209.5c0-52.4-42.6-95-95-95z" p-id="4595"></path><path d="M318.3 340.3h273c19.3 0 35-15.7 35-35s-15.7-35-35-35h-273c-19.3 0-35 15.7-35 35s15.6 35 35 35zM489.8 455.3c0-19.3-15.7-35-35-35H318.3c-19.3 0-35 15.7-35 35s15.7 35 35 35h136.5c19.3 0 35-15.7 35-35zM408.8 574.7h-90.5c-19.3 0-35 15.7-35 35s15.7 35 35 35h90.5c19.3 0 35-15.7 35-35s-15.7-35-35-35z" p-id="4596"></path></svg>