<?xml version="1.0" standalone="no"?><!DOCTYPE svg PUBLIC "-//W3C//DTD SVG 1.1//EN" "http://www.w3.org/Graphics/SVG/1.1/DTD/svg11.dtd"><svg t="1573462039659" class="icon" viewBox="0 0 1024 1024" version="1.1" xmlns="http://www.w3.org/2000/svg" p-id="842" xmlns:xlink="http://www.w3.org/1999/xlink" width="200" height="200"><defs><style type="text/css"></style></defs><path d="M912.739705 511.6928a31.4368 31.4368 0 0 0 23.293306-52.547368L532.598568 13.527579a31.4368 31.4368 0 0 0-46.58661 0L82.577516 459.145432a31.4368 31.4368 0 0 0 23.293305 52.547368H292.648421v477.539705a31.4368 31.4368 0 0 0 31.4368 31.4368h370.440084a31.4368 31.4368 0 0 0 31.4368-31.4368V511.6928h186.7776z m-246.660042 449.094063H352.525474V511.6928c0-33.069811-26.812632-59.882442-59.882442-59.882442H170.005558L509.305263 77.0048l339.299705 374.773221H725.962105c-33.069811 0-59.882442 26.812632-59.882442 59.887832v449.12101z"  p-id="843"></path></svg>
