<?xml version="1.0" standalone="no"?><!DOCTYPE svg PUBLIC "-//W3C//DTD SVG 1.1//EN" "http://www.w3.org/Graphics/SVG/1.1/DTD/svg11.dtd"><svg t="1576329624346" class="icon" viewBox="0 0 1024 1024" version="1.1" xmlns="http://www.w3.org/2000/svg" p-id="4140" xmlns:xlink="http://www.w3.org/1999/xlink" width="200" height="200"><defs><style type="text/css"></style></defs><path d="M912.871046 0c38.473088 0 69.680662 30.671194 69.680663 68.266569v204.799708c0 37.595375-31.207574 68.266569-69.680663 68.266569h-69.6319v648.532407c0 18.822068-15.603787 34.133285-34.81595 34.133284H181.394758a34.523379 34.523379 0 0 1-34.81595-34.133284V341.332846H77.044431C38.522581 341.332846 7.315007 310.661651 7.315007 273.066277V68.266569C7.315007 30.671194 38.522581 0 76.995669 0H912.822285zM494.933358 546.132553c57.587727 0 104.496613 45.933649 104.496612 102.399854 0 44.422032-29.208339 81.968645-69.680662 96.109577v40.423561c0 18.822068-15.603787 34.133285-34.81595 34.133285a34.523379 34.523379 0 0 1-34.815951-34.133285v-34.133284H425.203934a34.523379 34.523379 0 0 1-34.815951-34.133285c0-18.822068 15.603787-34.133285 34.815951-34.133285h69.680662a34.523379 34.523379 0 0 0 34.81595-34.133284c0-18.822068-15.652549-34.133285-34.81595-34.133285-57.587727 0-104.496613-45.933649-104.496613-102.399853 0-44.422032 29.208339-81.968645 69.680663-96.109577V375.46613c0-18.822068 15.603787-34.133285 34.81595-34.133284 19.212163 0 34.81595 15.311216 34.81595 34.133284v34.133285h34.864712c19.212163 0 34.81595 15.311216 34.815951 34.133284 0 18.822068-15.603787 34.133285-34.815951 34.133285H494.933358a34.523379 34.523379 0 0 0-34.815951 34.133285c0 18.822068 15.652549 34.133285 34.815951 34.133284z m278.625125 409.599415V204.799707H216.308232v750.932261h557.250251z m139.312563-682.665691V68.266569H77.044431v204.799708h69.6319V170.666423c0-18.822068 15.603787-34.133285 34.815951-34.133285H808.471957c19.212163 0 34.81595 15.311216 34.815951 34.133285v102.399854h69.6319z" fill="" p-id="4141"></path></svg>