<?xml version="1.0" standalone="no"?><!DOCTYPE svg PUBLIC "-//W3C//DTD SVG 1.1//EN" "http://www.w3.org/Graphics/SVG/1.1/DTD/svg11.dtd"><svg t="1576331057131" class="icon" viewBox="0 0 1024 1024" version="1.1" xmlns="http://www.w3.org/2000/svg" p-id="4706" xmlns:xlink="http://www.w3.org/1999/xlink" width="200" height="200"><defs><style type="text/css"></style></defs><path d="M815.220364 0A139.892364 139.892364 0 0 1 954.181818 140.8v742.4A139.892364 139.892364 0 0 1 815.220364 1024H208.779636A139.892364 139.892364 0 0 1 69.818182 883.2V140.8A139.892364 139.892364 0 0 1 208.779636 0h606.440728z m0 76.8H208.779636a62.836364 62.836364 0 0 0-44.660363 18.734545 64.442182 64.442182 0 0 0-18.501818 45.265455v742.4a64.418909 64.418909 0 0 0 18.501818 45.242182 62.836364 62.836364 0 0 0 44.660363 18.734545h606.440728a62.836364 62.836364 0 0 0 44.660363-18.734545 64.418909 64.418909 0 0 0 18.501818-45.242182V140.8a64.442182 64.442182 0 0 0-18.501818-45.265455 62.836364 62.836364 0 0 0-44.660363-18.734545zM625.710545 768a38.4 38.4 0 0 1 0 76.8h-227.42109a38.4 38.4 0 0 1 0-76.8h227.397818z m88.436364-614.4a89.018182 89.018182 0 0 1 88.436364 89.6v332.8a89.018182 89.018182 0 0 1-88.436364 89.6H309.853091a89.041455 89.041455 0 0 1-88.436364-89.6v-332.8a89.041455 89.041455 0 0 1 88.436364-89.6h404.293818z m0 76.8H309.853091a12.706909 12.706909 0 0 0-12.637091 12.8v332.8a12.730182 12.730182 0 0 0 12.637091 12.8h404.293818a12.730182 12.730182 0 0 0 12.637091-12.8v-332.8a12.706909 12.706909 0 0 0-12.637091-12.8z m0 0" p-id="4707"></path></svg>